<svg width="27" height="24" viewBox="0 0 27 24" fill="none" xmlns="http://www.w3.org/2000/svg">
<path fill-rule="evenodd" clip-rule="evenodd" d="M18.5793 12.531C18.6555 12.4614 18.7159 12.3786 18.7572 12.2875C18.7984 12.1964 18.8196 12.0987 18.8196 12C18.8196 11.9014 18.7984 11.8037 18.7572 11.7126C18.7159 11.6215 18.6555 11.5387 18.5793 11.469L8.7611 2.46903C8.60746 2.3282 8.39909 2.24908 8.18182 2.24908C7.96455 2.24908 7.75618 2.3282 7.60255 2.46903C7.44892 2.60986 7.36261 2.80087 7.36261 3.00003C7.36261 3.19919 7.44892 3.3902 7.60255 3.53103L16.8431 12L7.60255 20.469C7.44892 20.6099 7.36261 20.8009 7.36261 21C7.36261 21.1992 7.44892 21.3902 7.60255 21.531C7.75618 21.6719 7.96455 21.751 8.18182 21.751C8.39909 21.751 8.60746 21.6719 8.7611 21.531L18.5793 12.531Z" fill="black"/>
</svg>
