<svg width="12" height="20" viewBox="0 0 12 20" fill="none" xmlns="http://www.w3.org/2000/svg">
<path fill-rule="evenodd" clip-rule="evenodd" d="M0.968997 10.531C0.899153 10.4614 0.843738 10.3786 0.805928 10.2875C0.768119 10.1964 0.748657 10.0987 0.748657 10C0.748657 9.90138 0.768119 9.8037 0.805928 9.71258C0.843738 9.62146 0.899153 9.5387 0.968997 9.46903L9.969 0.469028C10.1098 0.328199 10.3008 0.249083 10.5 0.249083C10.6992 0.249083 10.8902 0.328199 11.031 0.469028C11.1718 0.609859 11.2509 0.800865 11.2509 1.00003C11.2509 1.19919 11.1718 1.3902 11.031 1.53103L2.5605 10L11.031 18.469C11.1718 18.6099 11.2509 18.8009 11.2509 19C11.2509 19.1992 11.1718 19.3902 11.031 19.531C10.8902 19.6719 10.6992 19.751 10.5 19.751C10.3008 19.751 10.1098 19.6719 9.969 19.531L0.968997 10.531Z" fill="black"/>
</svg>
