<svg width="14" height="14" viewBox="0 0 14 14" fill="none" xmlns="http://www.w3.org/2000/svg">
<path d="M3.79842 11.4874C4.37897 11.4874 4.8546 11.9391 4.8546 12.497C4.8546 13.0483 4.37897 13.5 3.79842 13.5C3.21088 13.5 2.73525 13.0483 2.73525 12.497C2.73525 11.9391 3.21088 11.4874 3.79842 11.4874ZM11.6673 11.4874C12.2478 11.4874 12.7235 11.9391 12.7235 12.497C12.7235 13.0483 12.2478 13.5 11.6673 13.5C11.0797 13.5 10.6041 13.0483 10.6041 12.497C10.6041 11.9391 11.0797 11.4874 11.6673 11.4874ZM0.616039 0.48801L2.28424 0.72647C2.52205 0.766988 2.69692 0.952309 2.7179 1.17815L2.8508 2.66603C2.87178 2.87925 3.05364 3.03866 3.27747 3.03866H12.7236C13.1503 3.03866 13.4301 3.17815 13.7098 3.4837C13.9896 3.78925 14.0386 4.22764 13.9756 4.62552L13.3111 8.98288C13.1852 9.82048 12.4298 10.4376 11.5415 10.4376H3.91047C2.9802 10.4376 2.2108 9.7607 2.13386 8.88391L1.49036 1.64311L0.434181 1.47041C0.154399 1.42391 -0.0414482 1.16486 0.00751364 0.899171C0.0564755 0.627499 0.329263 0.447492 0.616039 0.48801ZM10.4224 5.49566H8.48491C8.19114 5.49566 7.96032 5.71486 7.96032 5.99384C7.96032 6.26617 8.19114 6.49201 8.48491 6.49201H10.4224C10.7162 6.49201 10.947 6.26617 10.947 5.99384C10.947 5.71486 10.7162 5.49566 10.4224 5.49566Z" fill="white"/>
</svg>
