<svg width="24" height="24" viewBox="0 0 24 24" fill="none" xmlns="http://www.w3.org/2000/svg">
<path fill-rule="evenodd" clip-rule="evenodd" d="M11.469 6.96936C11.5387 6.89952 11.6214 6.8441 11.7126 6.80629C11.8037 6.76849 11.9014 6.74902 12 6.74902C12.0987 6.74902 12.1963 6.76849 12.2875 6.80629C12.3786 6.8441 12.4613 6.89952 12.531 6.96936L21.531 15.9694C21.6718 16.1102 21.7509 16.3012 21.7509 16.5004C21.7509 16.6995 21.6718 16.8905 21.531 17.0314C21.3902 17.1722 21.1992 17.2513 21 17.2513C20.8008 17.2513 20.6098 17.1722 20.469 17.0314L12 8.56086L3.531 17.0314C3.39017 17.1722 3.19916 17.2513 3 17.2513C2.80084 17.2513 2.60983 17.1722 2.469 17.0314C2.32817 16.8905 2.24905 16.6995 2.24905 16.5004C2.24905 16.3012 2.32817 16.1102 2.469 15.9694L11.469 6.96936Z" fill="white"/>
</svg>
