<svg width="25" height="24" viewBox="0 0 25 24" fill="none" xmlns="http://www.w3.org/2000/svg">
<g clip-path="url(#clip0_6_1082)">
<path d="M0.575 5.3325C0.726227 4.66986 1.09798 4.07822 1.62938 3.65446C2.16078 3.23071 2.82033 2.99995 3.5 3H21.5C22.1797 2.99995 22.8392 3.23071 23.3706 3.65446C23.902 4.07822 24.2738 4.66986 24.425 5.3325L12.5 12.621L0.575 5.3325ZM0.5 7.0455V17.7015L9.2045 12.3645L0.5 7.0455ZM10.6415 13.245L0.7865 19.2855C1.02999 19.7989 1.41429 20.2326 1.89467 20.5362C2.37505 20.8397 2.93176 21.0005 3.5 21H21.5C22.0681 21.0001 22.6246 20.8389 23.1048 20.5351C23.5849 20.2313 23.9688 19.7975 24.212 19.284L14.357 13.2435L12.5 14.379L10.6415 13.245ZM15.7955 12.366L24.5 17.7015V7.0455L15.7955 12.366Z" fill="white"/>
</g>
<defs>
<clipPath id="clip0_6_1082">
<rect width="24" height="24" fill="white" transform="translate(0.5)"/>
</clipPath>
</defs>
</svg>
