<svg width="25" height="24" viewBox="0 0 25 24" fill="none" xmlns="http://www.w3.org/2000/svg">
<g clip-path="url(#clip0_6_1086)">
<path d="M12.5 24C12.5 24 21.5 15.471 21.5 9C21.5 6.61305 20.5518 4.32387 18.864 2.63604C17.1761 0.948211 14.8869 0 12.5 0C10.1131 0 7.82387 0.948211 6.13604 2.63604C4.44821 4.32387 3.5 6.61305 3.5 9C3.5 15.471 12.5 24 12.5 24ZM12.5 13.5C11.3065 13.5 10.1619 13.0259 9.31802 12.182C8.47411 11.3381 8 10.1935 8 9C8 7.80653 8.47411 6.66193 9.31802 5.81802C10.1619 4.97411 11.3065 4.5 12.5 4.5C13.6935 4.5 14.8381 4.97411 15.682 5.81802C16.5259 6.66193 17 7.80653 17 9C17 10.1935 16.5259 11.3381 15.682 12.182C14.8381 13.0259 13.6935 13.5 12.5 13.5Z" fill="white"/>
</g>
<defs>
<clipPath id="clip0_6_1086">
<rect width="24" height="24" fill="white" transform="translate(0.5)"/>
</clipPath>
</defs>
</svg>
