<svg width="25" height="24" viewBox="0 0 25 24" fill="none" xmlns="http://www.w3.org/2000/svg">
<g clip-path="url(#clip0_6_1053)">
<path d="M23.8175 9.83674C23.9576 10.6422 24.0273 11.4582 24.026 12.2757C24.026 15.9267 22.721 19.0137 20.45 21.1032H20.453C18.467 22.9377 15.737 23.9997 12.5 23.9997C9.3174 23.9997 6.26516 22.7355 4.01472 20.485C1.76428 18.2346 0.5 15.1823 0.5 11.9997C0.5 8.81714 1.76428 5.7649 4.01472 3.51446C6.26516 1.26402 9.3174 -0.000259559 12.5 -0.000259559C15.4786 -0.0334305 18.3548 1.08547 20.528 3.12274L17.102 6.54874C15.8633 5.36862 14.2107 4.72221 12.5 4.74874C9.3695 4.74874 6.71 6.86074 5.762 9.70474C5.26024 11.1951 5.26024 12.8088 5.762 14.2992H5.7665C6.719 17.1387 9.374 19.2507 12.5045 19.2507C14.1215 19.2507 15.5105 18.8367 16.5875 18.1047H16.583C17.2085 17.6906 17.7435 17.1539 18.1558 16.5272C18.568 15.9004 18.8489 15.1966 18.9815 14.4582H12.5V9.83824L23.8175 9.83674Z" fill="white"/>
</g>
<defs>
<clipPath id="clip0_6_1053">
<rect width="24" height="24" fill="white" transform="translate(0.5)"/>
</clipPath>
</defs>
</svg>
