<svg width="24" height="24" viewBox="0 0 24 24" fill="none" xmlns="http://www.w3.org/2000/svg">
<g id="Search" clip-path="url(#clip0_5_3127)">
<path id="Vector" d="M17.613 15.5152C19.0654 13.5332 19.716 11.0759 19.4345 8.6349C19.1529 6.19389 17.9601 3.94918 16.0946 2.34987C14.2292 0.750556 11.8286 -0.0854205 9.37326 0.00918925C6.91789 0.103799 4.58878 1.12202 2.85191 2.86014C1.11503 4.59825 0.0984798 6.92809 0.00562703 9.38352C-0.0872257 11.839 0.750468 14.2389 2.35112 16.1032C3.95176 17.9676 6.19732 19.1588 8.63853 19.4386C11.0797 19.7183 13.5366 19.066 15.5175 17.6122H15.516C15.56 17.6722 15.609 17.7297 15.663 17.7847L21.438 23.5597C21.7193 23.8411 22.1008 23.9993 22.4987 23.9995C22.8966 23.9996 23.2783 23.8417 23.5598 23.5604C23.8412 23.2792 23.9994 22.8976 23.9996 22.4997C23.9997 22.1018 23.8418 21.7201 23.5605 21.4387L17.7855 15.6637C17.7319 15.6094 17.6742 15.5607 17.613 15.5152ZM18 9.74917C18 10.8326 17.7866 11.9054 17.372 12.9063C16.9574 13.9072 16.3497 14.8167 15.5836 15.5828C14.8176 16.3489 13.9081 16.9566 12.9071 17.3712C11.9062 17.7858 10.8334 17.9992 9.75 17.9992C8.6666 17.9992 7.5938 17.7858 6.59287 17.3712C5.59193 16.9566 4.68246 16.3489 3.91637 15.5828C3.15029 14.8167 2.5426 13.9072 2.128 12.9063C1.7134 11.9054 1.5 10.8326 1.5 9.74917C1.5 7.56114 2.3692 5.46272 3.91637 3.91554C5.46355 2.36837 7.56197 1.49917 9.75 1.49917C11.938 1.49917 14.0365 2.36837 15.5836 3.91554C17.1308 5.46272 18 7.56114 18 9.74917Z" fill="#6C7581"/>
</g>
<defs>
<clipPath id="clip0_5_3127">
<rect width="24" height="24" fill="white"/>
</clipPath>
</defs>
</svg>
