<svg width="55" height="52" viewBox="0 0 55 52" fill="none" xmlns="http://www.w3.org/2000/svg">
<path id="Shopping Chart" d="M14.9224 43.9604C17.2031 43.9604 19.0716 45.7647 19.0716 47.9935C19.0716 50.1957 17.2031 52 14.9224 52C12.6142 52 10.7456 50.1957 10.7456 47.9935C10.7456 45.7647 12.6142 43.9604 14.9224 43.9604ZM45.8358 43.9604C48.1165 43.9604 49.985 45.7647 49.985 47.9935C49.985 50.1957 48.1165 52 45.8358 52C43.5276 52 41.659 50.1957 41.659 47.9935C41.659 45.7647 43.5276 43.9604 45.8358 43.9604ZM2.42015 0.0227196L8.9738 0.975263C9.90807 1.13712 10.595 1.87739 10.6775 2.77952L11.1996 8.72297C11.282 9.57468 11.9964 10.2115 12.8758 10.2115H49.9856C51.6618 10.2115 52.7609 10.7687 53.8601 11.9892C54.9592 13.2097 55.1516 14.9609 54.9042 16.5503L52.2938 33.9561C51.7992 37.3019 48.8315 39.7668 45.3417 39.7668H15.3626C11.7079 39.7668 8.68527 37.0631 8.38301 33.5607L5.85498 4.63685L1.70571 3.94698C0.606568 3.76125 -0.162832 2.72646 0.0295179 1.66513C0.221868 0.579917 1.29353 -0.139133 2.42015 0.0227196ZM40.9451 20.0261H33.3336C32.1795 20.0261 31.2727 20.9017 31.2727 22.0161C31.2727 23.104 32.1795 24.0061 33.3336 24.0061H40.9451C42.0992 24.0061 43.006 23.104 43.006 22.0161C43.006 20.9017 42.0992 20.0261 40.9451 20.0261Z" fill="black"/>
</svg>
