<svg width="25" height="24" viewBox="0 0 25 24" fill="none" xmlns="http://www.w3.org/2000/svg">
<g clip-path="url(#clip0_6_1078)">
<path fill-rule="evenodd" clip-rule="evenodd" d="M3.32747 0.766232C3.58994 0.504165 3.9051 0.300869 4.25207 0.169817C4.59904 0.0387646 4.96991 -0.0170519 5.34008 0.00606638C5.71026 0.0291847 6.0713 0.13071 6.39927 0.303914C6.72724 0.477118 7.01466 0.718046 7.24247 1.01073L9.93497 4.46973C10.4285 5.10423 10.6025 5.93073 10.4075 6.71073L9.58697 9.99573C9.54485 10.1659 9.54729 10.344 9.59406 10.513C9.64082 10.6819 9.73034 10.836 9.85397 10.9602L13.5395 14.6457C13.6639 14.7696 13.8182 14.8593 13.9874 14.9061C14.1567 14.9528 14.3351 14.9551 14.5055 14.9127L17.789 14.0922C18.1739 13.9965 18.5756 13.9894 18.9637 14.0712C19.3519 14.153 19.7164 14.3218 20.03 14.5647L23.489 17.2557C24.7325 18.2232 24.8465 20.0607 23.7335 21.1722L22.1825 22.7232C21.0725 23.8332 19.4135 24.3207 17.867 23.7762C13.908 22.3851 10.3138 20.1189 7.35197 17.1462C4.37953 14.1849 2.1133 10.5912 0.721974 6.63273C0.178974 5.08773 0.666474 3.42723 1.77647 2.31723L3.32747 0.766232Z" fill="white"/>
</g>
<defs>
<clipPath id="clip0_6_1078">
<rect width="24" height="24" fill="white" transform="translate(0.5)"/>
</clipPath>
</defs>
</svg>
