<svg width="65" height="65" viewBox="0 0 65 65" fill="none" xmlns="http://www.w3.org/2000/svg">
<path fill-rule="evenodd" clip-rule="evenodd" d="M6.09375 32.5C6.09375 17.9162 17.9162 6.09375 32.5 6.09375C47.0838 6.09375 58.9062 17.9162 58.9062 32.5C58.9062 47.0838 47.0838 58.9062 32.5 58.9062C17.9162 58.9062 6.09375 47.0838 6.09375 32.5ZM54.8438 32.5C54.8438 20.1599 44.8401 10.1562 32.5 10.1562C20.1599 10.1562 10.1562 20.1599 10.1562 32.5C10.1562 44.8401 20.1599 54.8438 32.5 54.8438C44.8401 54.8438 54.8438 44.8401 54.8438 32.5Z" fill="black"/>
<path d="M32.5 38.5938C42.5213 38.5938 50.7812 44.601 50.7812 50.7812C50.7812 51.9031 49.8718 52.8125 48.75 52.8125C47.7083 52.8125 46.8498 52.0284 46.7324 51.0181L46.7188 50.7812C46.7188 47.1746 40.506 42.6562 32.5 42.6562C24.494 42.6562 18.2812 47.1746 18.2812 50.7812C18.2812 51.9031 17.3718 52.8125 16.25 52.8125C15.1282 52.8125 14.2188 51.9031 14.2188 50.7812C14.2188 44.601 22.4787 38.5938 32.5 38.5938Z" fill="black"/>
<path fill-rule="evenodd" clip-rule="evenodd" d="M22.3438 26.4062C22.3438 20.7971 26.8909 16.25 32.5 16.25C38.1091 16.25 42.6562 20.7971 42.6562 26.4062C42.6562 32.0154 38.1091 36.5625 32.5 36.5625C26.8909 36.5625 22.3438 32.0154 22.3438 26.4062ZM38.5938 26.4062C38.5938 23.0408 35.8655 20.3125 32.5 20.3125C29.1345 20.3125 26.4062 23.0408 26.4062 26.4062C26.4062 29.7717 29.1345 32.5 32.5 32.5C35.8655 32.5 38.5938 29.7717 38.5938 26.4062Z" fill="black"/>
</svg>
