<svg width="25" height="24" viewBox="0 0 25 24" fill="none" xmlns="http://www.w3.org/2000/svg">
<g clip-path="url(#clip0_6_1061)">
<path d="M12.5765 2.99805H12.71C13.943 3.00255 20.1905 3.04755 21.875 3.50055C22.3842 3.6388 22.8483 3.90828 23.2207 4.28206C23.5932 4.65584 23.861 5.12082 23.9975 5.63055C24.149 6.20055 24.2555 6.95505 24.3275 7.73355L24.3425 7.88955L24.3755 8.27955L24.3875 8.43555C24.485 9.80655 24.497 11.0905 24.4985 11.371V11.4835C24.497 11.7745 24.4835 13.1455 24.3755 14.5735L24.3635 14.731L24.35 14.887C24.275 15.745 24.164 16.597 23.9975 17.224C23.861 17.7338 23.5932 18.1988 23.2207 18.5725C22.8483 18.9463 22.3842 19.2158 21.875 19.354C20.135 19.822 13.5215 19.855 12.605 19.8565H12.392C11.9285 19.8565 10.0115 19.8475 8.0015 19.7785L7.7465 19.7695L7.616 19.7635L7.3595 19.753L7.103 19.7425C5.438 19.669 3.8525 19.5505 3.122 19.3525C2.61294 19.2144 2.14902 18.9452 1.77658 18.5717C1.40413 18.1982 1.13618 17.7335 0.9995 17.224C0.833 16.5985 0.722 15.745 0.647 14.887L0.635 14.7295L0.623 14.5735C0.548545 13.5572 0.507523 12.5386 0.5 11.5195L0.5 11.335C0.503 11.0125 0.515 9.89805 0.596 8.66805L0.6065 8.51355L0.611 8.43555L0.623 8.27955L0.656 7.88955L0.671 7.73355C0.743 6.95505 0.8495 6.19905 1.001 5.63055C1.13746 5.12082 1.4053 4.65584 1.77776 4.28206C2.15022 3.90828 2.61426 3.6388 3.1235 3.50055C3.854 3.30555 5.4395 3.18555 7.1045 3.11055L7.3595 3.10005L7.6175 3.09105L7.7465 3.08655L8.003 3.07605C9.43056 3.03015 10.8587 3.00465 12.287 2.99955L12.5765 2.99805ZM10.1 7.81305V15.04L16.3355 11.428L10.1 7.81305Z" fill="white"/>
</g>
<defs>
<clipPath id="clip0_6_1061">
<rect width="24" height="24" fill="white" transform="translate(0.5)"/>
</clipPath>
</defs>
</svg>
